<svg width="409.352" height="68" xmlns="http://www.w3.org/2000/svg">

 <g>
  <title>background</title>
  <rect fill="none" id="canvas_background" height="402" width="582" y="-1" x="-1"/>
 </g>
 <g>
  <title fill="#ffffff">Layer 1</title>
  <path fill="#ffffff" id="svg_2" d="m14.829,33.438c-0.182,0.905 -0.282,1.837 -0.282,2.784c0,8.915 8.352,16.136 18.656,16.136c10.303,0 18.656,-7.222 18.656,-16.136c0,-0.947 -0.101,-1.879 -0.283,-2.784c-3.873,-3.97 -10.651,-6.609 -18.373,-6.609c-7.723,0 -14.502,2.639 -18.374,6.609zm27.211,4.192c0,4.882 -3.956,8.836 -8.837,8.836c-4.88,0 -8.837,-3.954 -8.837,-8.836c0,-1.222 0.248,-2.386 0.698,-3.446c0.502,1.437 1.868,2.464 3.475,2.464c2.035,0 3.682,-1.646 3.682,-3.682c0,-1.607 -1.029,-2.973 -2.464,-3.476c1.059,-0.448 2.224,-0.698 3.446,-0.698c4.88,0.001 8.837,3.959 8.837,8.838z"/>
  <path fill="#ffffff" id="svg_3" d="m33.203,0c-21.278,7.78 -36.514,32.049 -32.584,56.561c0,0 12.716,11.439 32.583,11.439s32.583,-11.439 32.583,-11.439c3.931,-24.512 -11.305,-48.781 -32.582,-56.561zm28.062,53.832c0,0 -4.664,3.957 -11.7,6.155c-0.268,0.085 -0.581,0.091 -0.861,-0.073c-0.411,-0.239 -0.521,-0.721 -0.277,-1.143c0.04,-0.068 0.154,-0.205 0.263,-0.295c1.689,-1.389 3.102,-3.119 4.26,-5.125c2.073,-3.592 2.832,-7.578 2.426,-11.41l-0.003,-0.008c-1.204,6.194 -4.984,11.852 -10.877,15.256c-12.528,7.231 -28.317,5.331 -39.353,-3.355c0,0 -1.096,-6.019 0.518,-13.211c0.061,-0.273 0.212,-0.548 0.495,-0.707c0.413,-0.238 0.884,-0.094 1.127,0.33c0.041,0.068 0.102,0.236 0.125,0.375c0.357,2.156 1.148,4.244 2.307,6.252c2.074,3.591 5.148,6.241 8.667,7.806c-1.839,-1.599 -3.45,-3.526 -4.737,-5.757c-2.17,-3.758 -3.135,-7.878 -3.019,-11.919c0.271,-14.205 9.723,-26.636 22.576,-31.775c0,0 5.759,2.062 11.182,7.054c0.207,0.191 0.367,0.46 0.366,0.784c-0.003,0.476 -0.362,0.812 -0.851,0.812c-0.08,0 -0.255,-0.031 -0.388,-0.079c-2.047,-0.77 -4.25,-1.13 -6.568,-1.13c-4.147,0 -7.98,1.338 -11.093,3.605l-0.004,0.004c6.518,-2.255 13.615,-1.35 19.295,2.178c12.095,7.356 18.095,21.716 16.124,35.376z"/>
  <path fill="#ffffff" id="svg_5" d="m89.597,54.347l-9.362,0l0,-38.528l9.362,0l0,38.528z"/>
  <path fill="#ffffff" id="svg_6" d="m127.582,17.266l-0.664,8.153c-2.539,-1.609 -5.598,-2.415 -9.181,-2.415c-3.583,0 -6.583,1.118 -8.999,3.352c-2.416,2.233 -3.622,5.143 -3.622,8.726c0,3.585 1.226,6.482 3.684,8.696c2.455,2.215 5.533,3.322 9.239,3.322c3.986,0 7.146,-0.764 9.48,-2.295l-0.785,8.395c-2.336,1.369 -5.698,2.055 -10.084,2.055c-2.577,0 -5.104,-0.445 -7.581,-1.33c-2.474,-0.885 -4.72,-2.143 -6.733,-3.774c-2.012,-1.632 -3.634,-3.755 -4.86,-6.372c-1.229,-2.617 -1.843,-5.514 -1.843,-8.696c0,-4.227 1.066,-7.91 3.202,-11.051c2.133,-3.14 4.759,-5.445 7.88,-6.915c3.118,-1.469 6.431,-2.204 9.935,-2.204c4.589,-0.001 8.233,0.783 10.932,2.353z"/>
  <path fill="#ffffff" id="svg_7" d="m172.932,35.022c0,5.998 -2.063,10.868 -6.189,14.613c-4.128,3.745 -8.989,5.618 -14.584,5.618c-5.556,0 -10.399,-1.873 -14.525,-5.618s-6.189,-8.615 -6.189,-14.613c0,-5.919 2.063,-10.75 6.189,-14.495c4.126,-3.743 8.969,-5.615 14.525,-5.615c3.583,0 6.944,0.806 10.084,2.416c3.141,1.609 5.706,3.976 7.699,7.097c1.993,3.117 2.99,6.651 2.99,10.597zm-9.482,0c0,-3.462 -1.125,-6.313 -3.381,-8.546c-2.256,-2.233 -4.89,-3.352 -7.91,-3.352c-3.02,0 -5.647,1.118 -7.88,3.352c-2.237,2.233 -3.353,5.084 -3.353,8.546c0,3.501 1.116,6.37 3.353,8.605c2.233,2.233 4.86,3.352 7.88,3.352c3.02,0 5.654,-1.118 7.91,-3.352c2.256,-2.234 3.381,-5.103 3.381,-8.605z"/>
  <path fill="#ffffff" id="svg_8" d="m214.542,54.77l-4.711,0l-14.977,-16.427c-2.093,-2.295 -4.489,-5.111 -7.188,-8.454l-0.12,0.06c0.12,2.74 0.182,5.436 0.182,8.092l0,16.307l-9.359,0l0,-38.529l7.549,0l13.043,14.373c2.455,2.695 4.548,5.153 6.28,7.367l0.121,-0.062c-0.121,-2.294 -0.182,-4.688 -0.182,-7.185l0,-14.493l9.361,0l0,38.951l0.001,0z"/>
  <path fill="#ffffff" id="svg_9" d="m244.191,23.488l-13.647,0l0,7.669l11.232,0l0,7.79l-11.232,0l0,15.399l-9.359,0l0,-38.527l23.007,0l0,7.669l-0.001,0z"/>
  <path fill="#ffffff" id="svg_10" d="m258.381,54.347l-9.362,0l0,-38.528l9.362,0l0,38.528z"/>
  <path fill="#ffffff" id="svg_11" d="m301.801,54.77l-4.71,0l-14.978,-16.427c-2.094,-2.295 -4.488,-5.111 -7.188,-8.454l-0.119,0.06c0.119,2.74 0.182,5.436 0.182,8.092l0,16.307l-9.36,0l0,-38.529l7.549,0l13.043,14.373c2.455,2.695 4.549,5.153 6.281,7.367l0.12,-0.062c-0.12,-2.294 -0.183,-4.688 -0.183,-7.185l0,-14.493l9.362,0l0,38.951l0.001,0z"/>
  <path fill="#ffffff" id="svg_12" d="m336.071,21.073c4.006,3.501 6.011,8.173 6.011,14.009c0,5.838 -2.005,10.507 -6.011,14.01c-4.006,3.502 -8.888,5.255 -14.643,5.255l-12.984,0l0,-38.528l12.984,0c5.755,0 10.637,1.75 14.643,5.254zm-6.883,22.312c2.354,-1.951 3.531,-4.718 3.531,-8.303c0,-3.583 -1.178,-6.35 -3.531,-8.303c-2.356,-1.951 -5.305,-2.929 -8.849,-2.929l-2.897,0l0,22.464l2.897,0c3.544,-0.001 6.493,-0.976 8.849,-2.929z"/>
  <path fill="#ffffff" id="svg_13" d="m371.67,54.347l-24.156,0l0,-38.528l22.465,0l0,7.669l-13.105,0l0,7.669l10.689,0l0,7.79l-10.689,0l0,7.73l14.797,0l0,7.67l-0.001,0z"/>
  <path fill="#ffffff" id="svg_14" d="m409.352,54.347l-10.449,0l-10.386,-15.159l-3.32,0l0,15.159l-8.998,0l0,-38.528l14.371,0c3.421,0 6.351,1.066 8.788,3.199c2.436,2.136 3.651,4.952 3.651,8.456c0,2.172 -0.563,4.126 -1.69,5.858c-1.127,1.73 -2.535,2.998 -4.227,3.804l12.26,17.211zm-15.339,-26.873c0,-1.369 -0.475,-2.425 -1.421,-3.172c-0.945,-0.745 -2.083,-1.115 -3.41,-1.115l-3.985,0l0,8.635l3.985,0c1.327,0 2.465,-0.371 3.41,-1.118c0.947,-0.744 1.421,-1.822 1.421,-3.23z"/>
 </g>
</svg>